<svg width="20" height="20" viewBox="0 0 20 20" fill="none" xmlns="http://www.w3.org/2000/svg">
<path d="M10 0C15.523 0 20 4.477 20 10C20 15.523 15.523 20 10 20C4.477 20 0 15.523 0 10C0 4.477 4.477 0 10 0ZM10.936 5.649C10.612 4.784 9.388 4.784 9.064 5.649L6.064 13.649C5.97101 13.8972 5.98039 14.1723 6.09009 14.4136C6.19978 14.6549 6.40082 14.8428 6.649 14.936L6.76 14.971C6.99794 15.0297 7.24915 14.999 7.46595 14.8847C7.68274 14.7704 7.85001 14.5805 7.936 14.351L8.443 13H11.557L12.064 14.351C12.1076 14.4772 12.176 14.5935 12.2652 14.6929C12.3544 14.7923 12.4626 14.8728 12.5835 14.9296C12.7043 14.9865 12.8353 15.0186 12.9688 15.024C13.1022 15.0294 13.2354 15.008 13.3604 14.9612C13.4855 14.9143 13.5999 14.8428 13.6969 14.751C13.7938 14.6591 13.8714 14.5488 13.9251 14.4265C13.9787 14.3042 14.0073 14.1724 14.0092 14.0389C14.0111 13.9053 13.9862 13.7728 13.936 13.649L10.936 5.649ZM10 8.848L10.807 11H9.193L10 8.848Z" fill="#007fff"/>
</svg>
